<?xml version="1.0" encoding="UTF-8" standalone="no"?>
<!DOCTYPE svg PUBLIC "-//W3C//DTD SVG 1.1//EN"
 "http://www.w3.org/Graphics/SVG/1.1/DTD/svg11.dtd">
<!-- Generated by graphviz version 2.38.0 (20140413.2041)
 -->
<!-- Title: snakemake_dag Pages: 1 -->
<svg width="1184pt" height="548pt"
 viewBox="0.00 0.00 1184.00 548.00" xmlns="http://www.w3.org/2000/svg" xmlns:xlink="http://www.w3.org/1999/xlink">
<g id="graph0" class="graph" transform="scale(1 1) rotate(0) translate(4 544)">
<title>snakemake_dag</title>
<polygon fill="white" stroke="none" points="-4,4 -4,-544 1180,-544 1180,4 -4,4"/>
<!-- 0 -->
<g id="node1" class="node"><title>0</title>
<path fill="none" stroke="#d89c56" stroke-width="2" d="M550,-36C550,-36 520,-36 520,-36 514,-36 508,-30 508,-24 508,-24 508,-12 508,-12 508,-6 514,-0 520,-0 520,-0 550,-0 550,-0 556,-0 562,-6 562,-12 562,-12 562,-24 562,-24 562,-30 556,-36 550,-36"/>
<text text-anchor="middle" x="535" y="-15.5" font-family="sans" font-size="10.00">all</text>
</g>
<!-- 1 -->
<g id="node2" class="node"><title>1</title>
<path fill="none" stroke="#d86e56" stroke-width="2" d="M788.5,-396C788.5,-396 727.5,-396 727.5,-396 721.5,-396 715.5,-390 715.5,-384 715.5,-384 715.5,-372 715.5,-372 715.5,-366 721.5,-360 727.5,-360 727.5,-360 788.5,-360 788.5,-360 794.5,-360 800.5,-366 800.5,-372 800.5,-372 800.5,-384 800.5,-384 800.5,-390 794.5,-396 788.5,-396"/>
<text text-anchor="middle" x="758" y="-375.5" font-family="sans" font-size="10.00">star_statistics</text>
</g>
<!-- 1&#45;&gt;0 -->
<g id="edge1" class="edge"><title>1&#45;&gt;0</title>
<path fill="none" stroke="grey" stroke-width="2" d="M764.678,-359.811C774.321,-333.402 791,-281.064 791,-235 791,-235 791,-235 791,-161 791,-62.3818 643.925,-31.6813 572.731,-22.5973"/>
<polygon fill="grey" stroke="grey" stroke-width="2" points="572.741,-19.0737 562.396,-21.363 571.911,-26.0243 572.741,-19.0737"/>
</g>
<!-- 2 -->
<g id="node3" class="node"><title>2</title>
<path fill="none" stroke="#d85656" stroke-width="2" d="M614,-468C614,-468 584,-468 584,-468 578,-468 572,-462 572,-456 572,-456 572,-444 572,-444 572,-438 578,-432 584,-432 584,-432 614,-432 614,-432 620,-432 626,-438 626,-444 626,-444 626,-456 626,-456 626,-462 620,-468 614,-468"/>
<text text-anchor="middle" x="599" y="-447.5" font-family="sans" font-size="10.00">fastqc</text>
</g>
<!-- 2&#45;&gt;0 -->
<g id="edge2" class="edge"><title>2&#45;&gt;0</title>
<path fill="none" stroke="grey" stroke-width="2" d="M571.81,-433.909C523.266,-405.38 422.344,-338.555 375,-252 351.846,-209.67 343.339,-187.601 364,-144 390.662,-87.7358 456.855,-51.218 498.627,-32.938"/>
<polygon fill="grey" stroke="grey" stroke-width="2" points="500.075,-36.1256 507.914,-28.9975 497.341,-29.6817 500.075,-36.1256"/>
</g>
<!-- 3 -->
<g id="node4" class="node"><title>3</title>
<path fill="none" stroke="#d85656" stroke-width="2" d="M42,-396C42,-396 12,-396 12,-396 6,-396 0,-390 0,-384 0,-384 0,-372 0,-372 0,-366 6,-360 12,-360 12,-360 42,-360 42,-360 48,-360 54,-366 54,-372 54,-372 54,-384 54,-384 54,-390 48,-396 42,-396"/>
<text text-anchor="middle" x="27" y="-375.5" font-family="sans" font-size="10.00">fastqc</text>
</g>
<!-- 3&#45;&gt;0 -->
<g id="edge3" class="edge"><title>3&#45;&gt;0</title>
<path fill="none" stroke="grey" stroke-width="2" d="M26.0122,-359.958C24.555,-333.308 22,-280.143 22,-235 22,-235 22,-235 22,-161 22,-111.22 46.762,-96.6678 90,-72 159.382,-32.4169 403.756,-22.2347 497.764,-19.7548"/>
<polygon fill="grey" stroke="grey" stroke-width="2" points="498.035,-23.2493 507.944,-19.5012 497.86,-16.2515 498.035,-23.2493"/>
</g>
<!-- 4 -->
<g id="node5" class="node"><title>4</title>
<path fill="none" stroke="#56d8c9" stroke-width="2" d="M854,-468C854,-468 804,-468 804,-468 798,-468 792,-462 792,-456 792,-456 792,-444 792,-444 792,-438 798,-432 804,-432 804,-432 854,-432 854,-432 860,-432 866,-438 866,-444 866,-444 866,-456 866,-456 866,-462 860,-468 854,-468"/>
<text text-anchor="middle" x="829" y="-447.5" font-family="sans" font-size="10.00">fastqscreen</text>
</g>
<!-- 4&#45;&gt;0 -->
<g id="edge4" class="edge"><title>4&#45;&gt;0</title>
<path fill="none" stroke="grey" stroke-width="2" d="M829,-431.951C829,-405.292 829,-352.115 829,-307 829,-307 829,-307 829,-161 829,-48.1645 651.235,-24.9488 572.161,-20.2035"/>
<polygon fill="grey" stroke="grey" stroke-width="2" points="572.304,-16.7062 562.132,-19.6696 571.932,-23.6963 572.304,-16.7062"/>
</g>
<!-- 5 -->
<g id="node6" class="node"><title>5</title>
<path fill="none" stroke="#56d8c9" stroke-width="2" d="M112,-324C112,-324 62,-324 62,-324 56,-324 50,-318 50,-312 50,-312 50,-300 50,-300 50,-294 56,-288 62,-288 62,-288 112,-288 112,-288 118,-288 124,-294 124,-300 124,-300 124,-312 124,-312 124,-318 118,-324 112,-324"/>
<text text-anchor="middle" x="87" y="-303.5" font-family="sans" font-size="10.00">fastqscreen</text>
</g>
<!-- 5&#45;&gt;0 -->
<g id="edge5" class="edge"><title>5&#45;&gt;0</title>
<path fill="none" stroke="grey" stroke-width="2" d="M82.9917,-287.748C73.8949,-243.674 57.1365,-126.578 121,-72 177.233,-23.9424 407.094,-18.8286 497.872,-18.728"/>
<polygon fill="grey" stroke="grey" stroke-width="2" points="497.978,-22.228 507.981,-18.7373 497.984,-15.228 497.978,-22.228"/>
</g>
<!-- 6 -->
<g id="node7" class="node"><title>6</title>
<path fill="none" stroke="#ced856" stroke-width="2" d="M940.5,-324C940.5,-324 869.5,-324 869.5,-324 863.5,-324 857.5,-318 857.5,-312 857.5,-312 857.5,-300 857.5,-300 857.5,-294 863.5,-288 869.5,-288 869.5,-288 940.5,-288 940.5,-288 946.5,-288 952.5,-294 952.5,-300 952.5,-300 952.5,-312 952.5,-312 952.5,-318 946.5,-324 940.5,-324"/>
<text text-anchor="middle" x="905" y="-303.5" font-family="sans" font-size="10.00">insertion_profile</text>
</g>
<!-- 6&#45;&gt;0 -->
<g id="edge6" class="edge"><title>6&#45;&gt;0</title>
<path fill="none" stroke="grey" stroke-width="2" d="M906.139,-287.836C907.993,-244.48 906.336,-129.897 843,-72 803.971,-36.3226 645.825,-24.2492 572.575,-20.5188"/>
<polygon fill="grey" stroke="grey" stroke-width="2" points="572.565,-17.0143 562.408,-20.0271 572.227,-24.0061 572.565,-17.0143"/>
</g>
<!-- 7 -->
<g id="node8" class="node"><title>7</title>
<path fill="none" stroke="#ced856" stroke-width="2" d="M171.5,-252C171.5,-252 100.5,-252 100.5,-252 94.5,-252 88.5,-246 88.5,-240 88.5,-240 88.5,-228 88.5,-228 88.5,-222 94.5,-216 100.5,-216 100.5,-216 171.5,-216 171.5,-216 177.5,-216 183.5,-222 183.5,-228 183.5,-228 183.5,-240 183.5,-240 183.5,-246 177.5,-252 171.5,-252"/>
<text text-anchor="middle" x="136" y="-231.5" font-family="sans" font-size="10.00">insertion_profile</text>
</g>
<!-- 7&#45;&gt;0 -->
<g id="edge7" class="edge"><title>7&#45;&gt;0</title>
<path fill="none" stroke="grey" stroke-width="2" d="M129.762,-215.593C126.433,-205.374 122.683,-192.124 121,-180 114.064,-130.021 115.188,-101.671 156,-72 210.046,-32.7074 413.145,-22.4408 497.699,-19.8452"/>
<polygon fill="grey" stroke="grey" stroke-width="2" points="497.982,-23.3386 507.877,-19.5526 497.781,-16.3415 497.982,-23.3386"/>
</g>
<!-- 8 -->
<g id="node9" class="node"><title>8</title>
<path fill="none" stroke="#56d8b1" stroke-width="2" d="M1049.5,-324C1049.5,-324 982.5,-324 982.5,-324 976.5,-324 970.5,-318 970.5,-312 970.5,-312 970.5,-300 970.5,-300 970.5,-294 976.5,-288 982.5,-288 982.5,-288 1049.5,-288 1049.5,-288 1055.5,-288 1061.5,-294 1061.5,-300 1061.5,-300 1061.5,-312 1061.5,-312 1061.5,-318 1055.5,-324 1049.5,-324"/>
<text text-anchor="middle" x="1016" y="-303.5" font-family="sans" font-size="10.00">clipping_profile</text>
</g>
<!-- 8&#45;&gt;0 -->
<g id="edge8" class="edge"><title>8&#45;&gt;0</title>
<path fill="none" stroke="grey" stroke-width="2" d="M1010.83,-287.691C996.634,-243.481 952.613,-126.089 871,-72 822.458,-39.8288 649.286,-25.7705 572.326,-21.011"/>
<polygon fill="grey" stroke="grey" stroke-width="2" points="572.32,-17.5044 562.128,-20.4002 571.901,-24.4919 572.32,-17.5044"/>
</g>
<!-- 9 -->
<g id="node10" class="node"><title>9</title>
<path fill="none" stroke="#56d8b1" stroke-width="2" d="M209.5,-180C209.5,-180 142.5,-180 142.5,-180 136.5,-180 130.5,-174 130.5,-168 130.5,-168 130.5,-156 130.5,-156 130.5,-150 136.5,-144 142.5,-144 142.5,-144 209.5,-144 209.5,-144 215.5,-144 221.5,-150 221.5,-156 221.5,-156 221.5,-168 221.5,-168 221.5,-174 215.5,-180 209.5,-180"/>
<text text-anchor="middle" x="176" y="-159.5" font-family="sans" font-size="10.00">clipping_profile</text>
</g>
<!-- 9&#45;&gt;0 -->
<g id="edge9" class="edge"><title>9&#45;&gt;0</title>
<path fill="none" stroke="grey" stroke-width="2" d="M168.326,-143.655C160.88,-123.855 152.976,-91.6744 170,-72 212.139,-23.3004 413.399,-18.4096 497.712,-18.5495"/>
<polygon fill="grey" stroke="grey" stroke-width="2" points="497.852,-22.0501 507.867,-18.5921 497.882,-15.0501 497.852,-22.0501"/>
</g>
<!-- 10 -->
<g id="node11" class="node"><title>10</title>
<path fill="none" stroke="#d88556" stroke-width="2" d="M1088.5,-108C1088.5,-108 1013.5,-108 1013.5,-108 1007.5,-108 1001.5,-102 1001.5,-96 1001.5,-96 1001.5,-84 1001.5,-84 1001.5,-78 1007.5,-72 1013.5,-72 1013.5,-72 1088.5,-72 1088.5,-72 1094.5,-72 1100.5,-78 1100.5,-84 1100.5,-84 1100.5,-96 1100.5,-96 1100.5,-102 1094.5,-108 1088.5,-108"/>
<text text-anchor="middle" x="1051" y="-87.5" font-family="sans" font-size="10.00">read_distribution</text>
</g>
<!-- 10&#45;&gt;0 -->
<g id="edge10" class="edge"><title>10&#45;&gt;0</title>
<path fill="none" stroke="grey" stroke-width="2" d="M1001.31,-78.7918C988.83,-76.3965 975.449,-73.9709 963,-72 819.21,-49.2349 646.941,-30.4767 572.403,-22.7713"/>
<polygon fill="grey" stroke="grey" stroke-width="2" points="572.435,-19.2563 562.13,-21.7155 571.72,-26.2196 572.435,-19.2563"/>
</g>
<!-- 11 -->
<g id="node12" class="node"><title>11</title>
<path fill="none" stroke="#d88556" stroke-width="2" d="M266.5,-108C266.5,-108 191.5,-108 191.5,-108 185.5,-108 179.5,-102 179.5,-96 179.5,-96 179.5,-84 179.5,-84 179.5,-78 185.5,-72 191.5,-72 191.5,-72 266.5,-72 266.5,-72 272.5,-72 278.5,-78 278.5,-84 278.5,-84 278.5,-96 278.5,-96 278.5,-102 272.5,-108 266.5,-108"/>
<text text-anchor="middle" x="229" y="-87.5" font-family="sans" font-size="10.00">read_distribution</text>
</g>
<!-- 11&#45;&gt;0 -->
<g id="edge11" class="edge"><title>11&#45;&gt;0</title>
<path fill="none" stroke="grey" stroke-width="2" d="M278.559,-75.6053C283.432,-74.3578 288.307,-73.1366 293,-72 365.241,-54.5039 450.231,-36.4766 497.836,-26.6088"/>
<polygon fill="grey" stroke="grey" stroke-width="2" points="498.606,-30.0236 507.691,-24.5719 497.19,-23.1685 498.606,-30.0236"/>
</g>
<!-- 12 -->
<g id="node13" class="node"><title>12</title>
<path fill="none" stroke="#566bd8" stroke-width="2" d="M1164,-324C1164,-324 1130,-324 1130,-324 1124,-324 1118,-318 1118,-312 1118,-312 1118,-300 1118,-300 1118,-294 1124,-288 1130,-288 1130,-288 1164,-288 1164,-288 1170,-288 1176,-294 1176,-300 1176,-300 1176,-312 1176,-312 1176,-318 1170,-324 1164,-324"/>
<text text-anchor="middle" x="1147" y="-303.5" font-family="sans" font-size="10.00">read_GC</text>
</g>
<!-- 12&#45;&gt;0 -->
<g id="edge12" class="edge"><title>12&#45;&gt;0</title>
<path fill="none" stroke="grey" stroke-width="2" d="M1150.39,-287.766C1157.85,-244.245 1170.44,-129.309 1109,-72 1069.79,-35.4326 694.056,-22.9482 572.637,-19.8504"/>
<polygon fill="grey" stroke="grey" stroke-width="2" points="572.439,-16.3445 562.355,-19.5952 572.265,-23.3423 572.439,-16.3445"/>
</g>
<!-- 13 -->
<g id="node14" class="node"><title>13</title>
<path fill="none" stroke="#566bd8" stroke-width="2" d="M324,-396C324,-396 290,-396 290,-396 284,-396 278,-390 278,-384 278,-384 278,-372 278,-372 278,-366 284,-360 290,-360 290,-360 324,-360 324,-360 330,-360 336,-366 336,-372 336,-372 336,-384 336,-384 336,-390 330,-396 324,-396"/>
<text text-anchor="middle" x="307" y="-375.5" font-family="sans" font-size="10.00">read_GC</text>
</g>
<!-- 13&#45;&gt;0 -->
<g id="edge13" class="edge"><title>13&#45;&gt;0</title>
<path fill="none" stroke="grey" stroke-width="2" d="M307,-359.951C307,-333.292 307,-280.115 307,-235 307,-235 307,-235 307,-161 307,-120.031 301.898,-100.835 331,-72 354.346,-48.8685 445.365,-32.1046 497.596,-24.1607"/>
<polygon fill="grey" stroke="grey" stroke-width="2" points="498.426,-27.5759 507.804,-22.6453 497.398,-20.6518 498.426,-27.5759"/>
</g>
<!-- 14 -->
<g id="node15" class="node"><title>14</title>
<path fill="none" stroke="#569ad8" stroke-width="2" d="M427,-180C427,-180 385,-180 385,-180 379,-180 373,-174 373,-168 373,-168 373,-156 373,-156 373,-150 379,-144 385,-144 385,-144 427,-144 427,-144 433,-144 439,-150 439,-156 439,-156 439,-168 439,-168 439,-174 433,-180 427,-180"/>
<text text-anchor="middle" x="406" y="-159.5" font-family="sans" font-size="10.00">run_qc_qa</text>
</g>
<!-- 14&#45;&gt;0 -->
<g id="edge14" class="edge"><title>14&#45;&gt;0</title>
<path fill="none" stroke="grey" stroke-width="2" d="M421.56,-143.871C444.224,-118.924 486.444,-72.4495 512.495,-43.7729"/>
<polygon fill="grey" stroke="grey" stroke-width="2" points="515.251,-45.9445 519.384,-36.1893 510.07,-41.2376 515.251,-45.9445"/>
</g>
<!-- 15 -->
<g id="node16" class="node"><title>15</title>
<path fill="none" stroke="#9fd856" stroke-width="2" d="M526.5,-180C526.5,-180 469.5,-180 469.5,-180 463.5,-180 457.5,-174 457.5,-168 457.5,-168 457.5,-156 457.5,-156 457.5,-150 463.5,-144 469.5,-144 469.5,-144 526.5,-144 526.5,-144 532.5,-144 538.5,-150 538.5,-156 538.5,-156 538.5,-168 538.5,-168 538.5,-174 532.5,-180 526.5,-180"/>
<text text-anchor="middle" x="498" y="-159.5" font-family="sans" font-size="10.00">deseq2_plots</text>
</g>
<!-- 15&#45;&gt;0 -->
<g id="edge15" class="edge"><title>15&#45;&gt;0</title>
<path fill="none" stroke="grey" stroke-width="2" d="M502.382,-143.931C506.99,-126.01 514.464,-97.0138 521,-72 523.199,-63.5834 525.613,-54.4203 527.807,-46.1168"/>
<polygon fill="grey" stroke="grey" stroke-width="2" points="531.262,-46.7423 530.437,-36.1796 524.495,-44.9514 531.262,-46.7423"/>
</g>
<!-- 16 -->
<g id="node17" class="node"><title>16</title>
<path fill="none" stroke="#56c9d8" stroke-width="2" d="M572,-108C572,-108 542,-108 542,-108 536,-108 530,-102 530,-96 530,-96 530,-84 530,-84 530,-78 536,-72 542,-72 542,-72 572,-72 572,-72 578,-72 584,-78 584,-84 584,-84 584,-96 584,-96 584,-102 578,-108 572,-108"/>
<text text-anchor="middle" x="557" y="-87.5" font-family="sans" font-size="10.00">GO</text>
</g>
<!-- 16&#45;&gt;0 -->
<g id="edge16" class="edge"><title>16&#45;&gt;0</title>
<path fill="none" stroke="grey" stroke-width="2" d="M551.562,-71.6966C549.111,-63.8979 546.16,-54.5085 543.432,-45.8292"/>
<polygon fill="grey" stroke="grey" stroke-width="2" points="546.713,-44.5949 540.376,-36.1043 540.035,-46.6937 546.713,-44.5949"/>
</g>
<!-- 17 -->
<g id="node18" class="node"><title>17</title>
<path fill="none" stroke="#56d882" stroke-width="2" d="M649.5,-108C649.5,-108 618.5,-108 618.5,-108 612.5,-108 606.5,-102 606.5,-96 606.5,-96 606.5,-84 606.5,-84 606.5,-78 612.5,-72 618.5,-72 618.5,-72 649.5,-72 649.5,-72 655.5,-72 661.5,-78 661.5,-84 661.5,-84 661.5,-96 661.5,-96 661.5,-102 655.5,-108 649.5,-108"/>
<text text-anchor="middle" x="634" y="-87.5" font-family="sans" font-size="10.00">volcano</text>
</g>
<!-- 17&#45;&gt;0 -->
<g id="edge17" class="edge"><title>17&#45;&gt;0</title>
<path fill="none" stroke="grey" stroke-width="2" d="M609.782,-71.8761C597.077,-62.8931 581.336,-51.7625 567.577,-42.0341"/>
<polygon fill="grey" stroke="grey" stroke-width="2" points="569.497,-39.1053 559.311,-36.1898 565.456,-44.8209 569.497,-39.1053"/>
</g>
<!-- 18 -->
<g id="node19" class="node"><title>18</title>
<path fill="none" stroke="#d8cb56" stroke-width="2" d="M750,-252C750,-252 606,-252 606,-252 600,-252 594,-246 594,-240 594,-240 594,-228 594,-228 594,-222 600,-216 606,-216 606,-216 750,-216 750,-216 756,-216 762,-222 762,-228 762,-228 762,-240 762,-240 762,-246 756,-252 750,-252"/>
<text text-anchor="middle" x="678" y="-237" font-family="sans" font-size="10.00">permutation</text>
<text text-anchor="middle" x="678" y="-226" font-family="sans" font-size="10.00">contrast: Day00_I&#45;vs&#45;Day00_NI</text>
</g>
<!-- 18&#45;&gt;0 -->
<g id="edge18" class="edge"><title>18&#45;&gt;0</title>
<path fill="none" stroke="grey" stroke-width="2" d="M704.124,-215.816C715.579,-206.692 727.808,-194.386 734,-180 740.326,-165.304 739.686,-158.956 734,-144 708.227,-76.2123 622.303,-42.2961 572.185,-27.896"/>
<polygon fill="grey" stroke="grey" stroke-width="2" points="572.938,-24.4732 562.368,-25.193 571.08,-31.2221 572.938,-24.4732"/>
</g>
<!-- 19 -->
<g id="node20" class="node"><title>19</title>
<path fill="none" stroke="#d8b456" stroke-width="2" d="M968,-468C968,-468 938,-468 938,-468 932,-468 926,-462 926,-456 926,-456 926,-444 926,-444 926,-438 932,-432 938,-432 938,-432 968,-432 968,-432 974,-432 980,-438 980,-444 980,-444 980,-456 980,-456 980,-462 974,-468 968,-468"/>
<text text-anchor="middle" x="953" y="-447.5" font-family="sans" font-size="10.00">STAR</text>
</g>
<!-- 19&#45;&gt;1 -->
<g id="edge19" class="edge"><title>19&#45;&gt;1</title>
<path fill="none" stroke="grey" stroke-width="2" d="M925.886,-439.267C896.106,-428.576 847.567,-411.152 810.321,-397.782"/>
<polygon fill="grey" stroke="grey" stroke-width="2" points="811.222,-394.387 800.628,-394.302 808.857,-400.975 811.222,-394.387"/>
</g>
<!-- 19&#45;&gt;6 -->
<g id="edge25" class="edge"><title>19&#45;&gt;6</title>
<path fill="none" stroke="grey" stroke-width="2" d="M950.848,-431.856C948.215,-413.623 942.964,-384.143 934,-360 930.605,-350.855 925.849,-341.36 921.17,-332.976"/>
<polygon fill="grey" stroke="grey" stroke-width="2" points="924.042,-330.953 915.995,-324.06 917.988,-334.466 924.042,-330.953"/>
</g>
<!-- 19&#45;&gt;8 -->
<g id="edge27" class="edge"><title>19&#45;&gt;8</title>
<path fill="none" stroke="grey" stroke-width="2" d="M960.599,-431.871C971.431,-407.457 991.41,-362.426 1004.18,-333.635"/>
<polygon fill="grey" stroke="grey" stroke-width="2" points="1007.52,-334.749 1008.37,-324.189 1001.12,-331.911 1007.52,-334.749"/>
</g>
<!-- 19&#45;&gt;10 -->
<g id="edge29" class="edge"><title>19&#45;&gt;10</title>
<path fill="none" stroke="grey" stroke-width="2" d="M980.067,-436.238C1019.99,-415.314 1090,-369.688 1090,-307 1090,-307 1090,-307 1090,-233 1090,-191.56 1074.36,-145.668 1062.89,-117.575"/>
<polygon fill="grey" stroke="grey" stroke-width="2" points="1066,-115.931 1058.89,-108.072 1059.55,-118.647 1066,-115.931"/>
</g>
<!-- 19&#45;&gt;12 -->
<g id="edge31" class="edge"><title>19&#45;&gt;12</title>
<path fill="none" stroke="grey" stroke-width="2" d="M980.168,-445.82C1013.1,-440.667 1068.57,-427.652 1104,-396 1122.42,-379.547 1133.72,-353.466 1140.08,-333.782"/>
<polygon fill="grey" stroke="grey" stroke-width="2" points="1143.45,-334.74 1142.97,-324.156 1136.74,-332.727 1143.45,-334.74"/>
</g>
<!-- 27 -->
<g id="node28" class="node"><title>27</title>
<path fill="none" stroke="#5682d8" stroke-width="2" d="M913,-396C913,-396 869,-396 869,-396 863,-396 857,-390 857,-384 857,-384 857,-372 857,-372 857,-366 863,-360 869,-360 869,-360 913,-360 913,-360 919,-360 925,-366 925,-372 925,-372 925,-384 925,-384 925,-390 919,-396 913,-396"/>
<text text-anchor="middle" x="891" y="-375.5" font-family="sans" font-size="10.00">genecount</text>
</g>
<!-- 19&#45;&gt;27 -->
<g id="edge45" class="edge"><title>19&#45;&gt;27</title>
<path fill="none" stroke="grey" stroke-width="2" d="M937.674,-431.697C930.241,-423.305 921.177,-413.07 913.02,-403.861"/>
<polygon fill="grey" stroke="grey" stroke-width="2" points="915.4,-401.27 906.15,-396.104 910.16,-405.911 915.4,-401.27"/>
</g>
<!-- 20 -->
<g id="node21" class="node"><title>20</title>
<path fill="none" stroke="#d8b456" stroke-width="2" d="M265,-468C265,-468 235,-468 235,-468 229,-468 223,-462 223,-456 223,-456 223,-444 223,-444 223,-438 229,-432 235,-432 235,-432 265,-432 265,-432 271,-432 277,-438 277,-444 277,-444 277,-456 277,-456 277,-462 271,-468 265,-468"/>
<text text-anchor="middle" x="250" y="-447.5" font-family="sans" font-size="10.00">STAR</text>
</g>
<!-- 20&#45;&gt;1 -->
<g id="edge20" class="edge"><title>20&#45;&gt;1</title>
<path fill="none" stroke="grey" stroke-width="2" d="M277.312,-445.236C358.369,-434.067 598.552,-400.971 705.551,-386.227"/>
<polygon fill="grey" stroke="grey" stroke-width="2" points="706.052,-389.691 715.48,-384.859 705.096,-382.757 706.052,-389.691"/>
</g>
<!-- 20&#45;&gt;7 -->
<g id="edge26" class="edge"><title>20&#45;&gt;7</title>
<path fill="none" stroke="grey" stroke-width="2" d="M229.68,-431.98C219.119,-422.297 206.649,-409.442 198,-396 170.214,-352.815 151.837,-295.263 142.729,-261.956"/>
<polygon fill="grey" stroke="grey" stroke-width="2" points="146.047,-260.81 140.098,-252.043 139.281,-262.606 146.047,-260.81"/>
</g>
<!-- 20&#45;&gt;9 -->
<g id="edge28" class="edge"><title>20&#45;&gt;9</title>
<path fill="none" stroke="grey" stroke-width="2" d="M245.38,-431.835C242.611,-421.47 239.049,-407.991 236,-396 215.705,-316.184 213.686,-295.449 192,-216 189.661,-207.43 186.925,-198.14 184.384,-189.767"/>
<polygon fill="grey" stroke="grey" stroke-width="2" points="187.703,-188.651 181.421,-180.119 181.011,-190.706 187.703,-188.651"/>
</g>
<!-- 20&#45;&gt;11 -->
<g id="edge30" class="edge"><title>20&#45;&gt;11</title>
<path fill="none" stroke="grey" stroke-width="2" d="M250,-431.951C250,-405.292 250,-352.115 250,-307 250,-307 250,-307 250,-233 250,-192.782 241.654,-146.839 235.485,-118.372"/>
<polygon fill="grey" stroke="grey" stroke-width="2" points="238.846,-117.362 233.25,-108.366 232.015,-118.889 238.846,-117.362"/>
</g>
<!-- 20&#45;&gt;13 -->
<g id="edge32" class="edge"><title>20&#45;&gt;13</title>
<path fill="none" stroke="grey" stroke-width="2" d="M264.09,-431.697C270.923,-423.305 279.257,-413.07 286.756,-403.861"/>
<polygon fill="grey" stroke="grey" stroke-width="2" points="289.472,-406.069 293.072,-396.104 284.044,-401.649 289.472,-406.069"/>
</g>
<!-- 28 -->
<g id="node29" class="node"><title>28</title>
<path fill="none" stroke="#5682d8" stroke-width="2" d="M410,-396C410,-396 366,-396 366,-396 360,-396 354,-390 354,-384 354,-384 354,-372 354,-372 354,-366 360,-360 366,-360 366,-360 410,-360 410,-360 416,-360 422,-366 422,-372 422,-372 422,-384 422,-384 422,-390 416,-396 410,-396"/>
<text text-anchor="middle" x="388" y="-375.5" font-family="sans" font-size="10.00">genecount</text>
</g>
<!-- 20&#45;&gt;28 -->
<g id="edge46" class="edge"><title>20&#45;&gt;28</title>
<path fill="none" stroke="grey" stroke-width="2" d="M277.264,-435.17C296.646,-425.339 323.066,-411.937 345.239,-400.691"/>
<polygon fill="grey" stroke="grey" stroke-width="2" points="347.113,-403.664 354.448,-396.019 343.947,-397.421 347.113,-403.664"/>
</g>
<!-- 21 -->
<g id="node22" class="node"><title>21</title>
<path fill="none" stroke="#88d856" stroke-width="2" d="M852.5,-540C852.5,-540 805.5,-540 805.5,-540 799.5,-540 793.5,-534 793.5,-528 793.5,-528 793.5,-516 793.5,-516 793.5,-510 799.5,-504 805.5,-504 805.5,-504 852.5,-504 852.5,-504 858.5,-504 864.5,-510 864.5,-516 864.5,-516 864.5,-528 864.5,-528 864.5,-534 858.5,-540 852.5,-540"/>
<text text-anchor="middle" x="829" y="-525" font-family="sans" font-size="10.00">trimming</text>
<text text-anchor="middle" x="829" y="-514" font-family="sans" font-size="10.00">sample: S2</text>
</g>
<!-- 21&#45;&gt;2 -->
<g id="edge21" class="edge"><title>21&#45;&gt;2</title>
<path fill="none" stroke="grey" stroke-width="2" d="M793.315,-510.139C750.471,-497.1 678.992,-475.345 635.701,-462.17"/>
<polygon fill="grey" stroke="grey" stroke-width="2" points="636.711,-458.819 626.125,-459.255 634.673,-465.515 636.711,-458.819"/>
</g>
<!-- 21&#45;&gt;4 -->
<g id="edge23" class="edge"><title>21&#45;&gt;4</title>
<path fill="none" stroke="grey" stroke-width="2" d="M829,-503.697C829,-495.983 829,-486.712 829,-478.112"/>
<polygon fill="grey" stroke="grey" stroke-width="2" points="832.5,-478.104 829,-468.104 825.5,-478.104 832.5,-478.104"/>
</g>
<!-- 21&#45;&gt;19 -->
<g id="edge38" class="edge"><title>21&#45;&gt;19</title>
<path fill="none" stroke="grey" stroke-width="2" d="M859.334,-503.876C876.753,-494.042 898.732,-481.635 917.02,-471.311"/>
<polygon fill="grey" stroke="grey" stroke-width="2" points="918.946,-474.243 925.934,-466.279 915.505,-468.147 918.946,-474.243"/>
</g>
<!-- 22 -->
<g id="node23" class="node"><title>22</title>
<path fill="none" stroke="#88d856" stroke-width="2" d="M110.5,-540C110.5,-540 63.5,-540 63.5,-540 57.5,-540 51.5,-534 51.5,-528 51.5,-528 51.5,-516 51.5,-516 51.5,-510 57.5,-504 63.5,-504 63.5,-504 110.5,-504 110.5,-504 116.5,-504 122.5,-510 122.5,-516 122.5,-516 122.5,-528 122.5,-528 122.5,-534 116.5,-540 110.5,-540"/>
<text text-anchor="middle" x="87" y="-525" font-family="sans" font-size="10.00">trimming</text>
<text text-anchor="middle" x="87" y="-514" font-family="sans" font-size="10.00">sample: S1</text>
</g>
<!-- 22&#45;&gt;3 -->
<g id="edge22" class="edge"><title>22&#45;&gt;3</title>
<path fill="none" stroke="grey" stroke-width="2" d="M79.7626,-503.871C69.4466,-479.457 50.4194,-434.426 38.2543,-405.635"/>
<polygon fill="grey" stroke="grey" stroke-width="2" points="41.3793,-404.038 34.2631,-396.189 34.9313,-406.763 41.3793,-404.038"/>
</g>
<!-- 22&#45;&gt;5 -->
<g id="edge24" class="edge"><title>22&#45;&gt;5</title>
<path fill="none" stroke="grey" stroke-width="2" d="M87,-503.849C87,-466.832 87,-379.181 87,-334.386"/>
<polygon fill="grey" stroke="grey" stroke-width="2" points="90.5001,-334.232 87,-324.232 83.5001,-334.232 90.5001,-334.232"/>
</g>
<!-- 22&#45;&gt;20 -->
<g id="edge39" class="edge"><title>22&#45;&gt;20</title>
<path fill="none" stroke="grey" stroke-width="2" d="M122.771,-505.638C149.647,-494.097 186.331,-478.342 213.404,-466.716"/>
<polygon fill="grey" stroke="grey" stroke-width="2" points="215.101,-469.797 222.908,-462.635 212.338,-463.365 215.101,-469.797"/>
</g>
<!-- 23 -->
<g id="node24" class="node"><title>23</title>
<path fill="none" stroke="#56d86b" stroke-width="2" d="M466,-252C466,-252 396,-252 396,-252 390,-252 384,-246 384,-240 384,-240 384,-228 384,-228 384,-222 390,-216 396,-216 396,-216 466,-216 466,-216 472,-216 478,-222 478,-228 478,-228 478,-240 478,-240 478,-246 472,-252 466,-252"/>
<text text-anchor="middle" x="431" y="-231.5" font-family="sans" font-size="10.00">generate_qc_qa</text>
</g>
<!-- 23&#45;&gt;14 -->
<g id="edge33" class="edge"><title>23&#45;&gt;14</title>
<path fill="none" stroke="grey" stroke-width="2" d="M424.82,-215.697C422.005,-207.813 418.609,-198.304 415.481,-189.546"/>
<polygon fill="grey" stroke="grey" stroke-width="2" points="418.768,-188.345 412.109,-180.104 412.176,-190.699 418.768,-188.345"/>
</g>
<!-- 24 -->
<g id="node25" class="node"><title>24</title>
<path fill="none" stroke="#59d856" stroke-width="2" d="M561.5,-252C561.5,-252 512.5,-252 512.5,-252 506.5,-252 500.5,-246 500.5,-240 500.5,-240 500.5,-228 500.5,-228 500.5,-222 506.5,-216 512.5,-216 512.5,-216 561.5,-216 561.5,-216 567.5,-216 573.5,-222 573.5,-228 573.5,-228 573.5,-240 573.5,-240 573.5,-246 567.5,-252 561.5,-252"/>
<text text-anchor="middle" x="537" y="-231.5" font-family="sans" font-size="10.00">deseq2_init</text>
</g>
<!-- 24&#45;&gt;15 -->
<g id="edge34" class="edge"><title>24&#45;&gt;15</title>
<path fill="none" stroke="grey" stroke-width="2" d="M527.36,-215.697C522.873,-207.644 517.441,-197.894 512.476,-188.982"/>
<polygon fill="grey" stroke="grey" stroke-width="2" points="515.454,-187.137 507.53,-180.104 509.339,-190.544 515.454,-187.137"/>
</g>
<!-- 25 -->
<g id="node26" class="node"><title>25</title>
<path fill="none" stroke="#b6d856" stroke-width="2" d="M713,-180C713,-180 569,-180 569,-180 563,-180 557,-174 557,-168 557,-168 557,-156 557,-156 557,-150 563,-144 569,-144 569,-144 713,-144 713,-144 719,-144 725,-150 725,-156 725,-156 725,-168 725,-168 725,-174 719,-180 713,-180"/>
<text text-anchor="middle" x="641" y="-165" font-family="sans" font-size="10.00">deseq2</text>
<text text-anchor="middle" x="641" y="-154" font-family="sans" font-size="10.00">contrast: Day00_I&#45;vs&#45;Day00_NI</text>
</g>
<!-- 24&#45;&gt;25 -->
<g id="edge42" class="edge"><title>24&#45;&gt;25</title>
<path fill="none" stroke="grey" stroke-width="2" d="M562.441,-215.876C575.787,-206.893 592.324,-195.763 606.778,-186.034"/>
<polygon fill="grey" stroke="grey" stroke-width="2" points="609.119,-188.677 615.461,-180.19 605.211,-182.87 609.119,-188.677"/>
</g>
<!-- 25&#45;&gt;16 -->
<g id="edge35" class="edge"><title>25&#45;&gt;16</title>
<path fill="none" stroke="grey" stroke-width="2" d="M620.236,-143.697C609.759,-134.965 596.889,-124.24 585.5,-114.75"/>
<polygon fill="grey" stroke="grey" stroke-width="2" points="587.448,-111.817 577.525,-108.104 582.967,-117.195 587.448,-111.817"/>
</g>
<!-- 25&#45;&gt;17 -->
<g id="edge36" class="edge"><title>25&#45;&gt;17</title>
<path fill="none" stroke="grey" stroke-width="2" d="M639.27,-143.697C638.498,-135.983 637.571,-126.712 636.711,-118.112"/>
<polygon fill="grey" stroke="grey" stroke-width="2" points="640.188,-117.706 635.71,-108.104 633.223,-118.403 640.188,-117.706"/>
</g>
<!-- 26 -->
<g id="node27" class="node"><title>26</title>
<path fill="none" stroke="#70d856" stroke-width="2" d="M571.5,-324C571.5,-324 502.5,-324 502.5,-324 496.5,-324 490.5,-318 490.5,-312 490.5,-312 490.5,-300 490.5,-300 490.5,-294 496.5,-288 502.5,-288 502.5,-288 571.5,-288 571.5,-288 577.5,-288 583.5,-294 583.5,-300 583.5,-300 583.5,-312 583.5,-312 583.5,-318 577.5,-324 571.5,-324"/>
<text text-anchor="middle" x="537" y="-303.5" font-family="sans" font-size="10.00">compile_counts</text>
</g>
<!-- 26&#45;&gt;18 -->
<g id="edge37" class="edge"><title>26&#45;&gt;18</title>
<path fill="none" stroke="grey" stroke-width="2" d="M571.492,-287.876C590.44,-278.469 614.132,-266.708 634.356,-256.667"/>
<polygon fill="grey" stroke="grey" stroke-width="2" points="635.974,-259.771 643.375,-252.19 632.862,-253.502 635.974,-259.771"/>
</g>
<!-- 26&#45;&gt;23 -->
<g id="edge40" class="edge"><title>26&#45;&gt;23</title>
<path fill="none" stroke="grey" stroke-width="2" d="M511.069,-287.876C497.338,-278.808 480.294,-267.552 465.464,-257.759"/>
<polygon fill="grey" stroke="grey" stroke-width="2" points="467.304,-254.78 457.03,-252.19 463.446,-260.621 467.304,-254.78"/>
</g>
<!-- 26&#45;&gt;24 -->
<g id="edge41" class="edge"><title>26&#45;&gt;24</title>
<path fill="none" stroke="grey" stroke-width="2" d="M537,-287.697C537,-279.983 537,-270.712 537,-262.112"/>
<polygon fill="grey" stroke="grey" stroke-width="2" points="540.5,-262.104 537,-252.104 533.5,-262.104 540.5,-262.104"/>
</g>
<!-- 27&#45;&gt;26 -->
<g id="edge43" class="edge"><title>27&#45;&gt;26</title>
<path fill="none" stroke="grey" stroke-width="2" d="M856.708,-369.795C842.024,-366.735 824.679,-363.153 809,-360 734.626,-345.045 648.676,-328.405 593.629,-317.829"/>
<polygon fill="grey" stroke="grey" stroke-width="2" points="594.201,-314.375 583.72,-315.927 592.881,-321.25 594.201,-314.375"/>
</g>
<!-- 28&#45;&gt;26 -->
<g id="edge44" class="edge"><title>28&#45;&gt;26</title>
<path fill="none" stroke="grey" stroke-width="2" d="M422.184,-360.941C442.707,-351.299 469.072,-338.912 491.361,-328.441"/>
<polygon fill="grey" stroke="grey" stroke-width="2" points="493.072,-331.504 500.635,-324.084 490.095,-325.169 493.072,-331.504"/>
</g>
</g>
</svg>
